PathFileType	4	(X/Y/Z)	C:\Users\Basilio\Documents\Thesis Gigler\squatting_fais\c3dfiles\054\SJ_pre5\markers_experimental.trc
DataRate	CameraRate	NumFrames	NumMarkers	Units	OrigDataRate	OrigDataStartFrame	OrigNumFrames
200.000000	200.000000	4	61	mm	200.000000	600	1602
Frame#	Time	FHD			LBHD			RBHD			C7			T10			CLAV			LSHO			LUUPA			LMUPA			LDUPA			LLEP			LMEP			LRAD			LUL			LRFIN			RSHO			RUPA1			RMUPA			RDUPA			RLEP			RMEP			RRAD			RUL			RUFIN			LASI			RASI			USACR			LSACR			RSACR			LTHI1			LTHI2			LTHI3			LTHI4			LLFC			LMFC			LTIB1			LTIB2			LTIB3			LTIB4			LLMAL			LMMAL			LHEE			LMT1			LMT2			LMT5			RTHI			RTHI2			RTHI3			RTHI4			RLFC			RMFC			RTIB1			RTIB2			RTIB3			RTIB4			RLMAL			RMMAL			RHEE			RMT1			RMT2			RMT5			
		X1	Y1	Z1	X2	Y2	Z2	X3	Y3	Z3	X4	Y4	Z4	X5	Y5	Z5	X6	Y6	Z6	X7	Y7	Z7	X8	Y8	Z8	X9	Y9	Z9	X10	Y10	Z10	X11	Y11	Z11	X12	Y12	Z12	X13	Y13	Z13	X14	Y14	Z14	X15	Y15	Z15	X16	Y16	Z16	X17	Y17	Z17	X18	Y18	Z18	X19	Y19	Z19	X20	Y20	Z20	X21	Y21	Z21	X22	Y22	Z22	X23	Y23	Z23	X24	Y24	Z24	X25	Y25	Z25	X26	Y26	Z26	X27	Y27	Z27	X28	Y28	Z28	X29	Y29	Z29	X30	Y30	Z30	X31	Y31	Z31	X32	Y32	Z32	X33	Y33	Z33	X34	Y34	Z34	X35	Y35	Z35	X36	Y36	Z36	X37	Y37	Z37	X38	Y38	Z38	X39	Y39	Z39	X40	Y40	Z40	X41	Y41	Z41	X42	Y42	Z42	X43	Y43	Z43	X44	Y44	Z44	X45	Y45	Z45	X46	Y46	Z46	X47	Y47	Z47	X48	Y48	Z48	X49	Y49	Z49	X50	Y50	Z50	X51	Y51	Z51	X52	Y52	Z52	X53	Y53	Z53	X54	Y54	Z54	X55	Y55	Z55	X56	Y56	Z56	X57	Y57	Z57	X58	Y58	Z58	X59	Y59	Z59	X60	Y60	Z60	X61	Y61	Z61	

601	3	157.9571228027344	1142.701782226563	-883.7830810546877	-2.988998174667359	1098.203735351563	-960.4692993164065	-25.44522666931153	1097.737060546875	-822.274108886719	-76.20326232910158	1020.485534667969	-878.8731079101565	-357.9498901367188	849.4794921875002	-913.7250976562502	-16.49650192260743	868.5601806640627	-885.2593383789065	1.079889178276062	948.684753417969	-1037.361083984375	-132.1857604980469	951.0986328125002	-1222.9208984375	-136.0672607421875	901.8684082031252	-1235.828002929688	-174.9521636962891	926.8013916015627	-1274.373413085938	-222.8667449951172	884.132995605469	-1300.624877929688	-285.6281127929688	932.1539306640627	-1259.000244140625	-387.1864013671876	739.8366088867189	-1146.398193359375	-372.5189819335938	679.1860351562501	-1191.087524414063	-344.5860595703126	718.1536865234376	-1100.395141601563	-8.995780944824221	931.2250976562502	-723.2185058593751	-183.8730621337891	936.6715087890627	-567.9276733398439	-202.3103485107422	891.797790527344	-560.4616088867189	-245.7702026367188	926.4170532226565	-535.6128540039064	-294.0234680175782	907.7396240234377	-524.4340820312501	-332.4776611328126	956.6870727539065	-585.4229736328126	-447.5048828125001	761.8793334960939	-701.8684692382814	-390.0499877929689	736.3248291015626	-727.1892700195314	-437.7542114257814	706.5116577148439	-646.6422729492189	-354.2660217285157	634.2118530273439	-1041.662109375	-361.5832824707032	654.7750244140626	-775.602966308594	-444.9004516601564	798.4460449218752	-916.3982543945315	-471.8695373535157	781.0554199218752	-944.5673828125002	-475.6371154785157	782.5442504882815	-887.3462524414065	-412.7913513183595	570.1014404296876	-1181.254272460938	-332.8359985351563	559.6727294921876	-1209.65966796875	-306.3916625976563	596.3672485351564	-1197.0859375	-304.0940551757813	507.9331665039064	-1223.2978515625	-188.6873779296875	438.3735961914064	-1251.390625	-123.5500946044922	422.7090148925782	-1131.315795898438	-198.4136505126954	280.1300659179688	-1213.538818359375	-278.3833007812501	268.5233154296876	-1252.512451171875	-241.307601928711	247.8156433105469	-1236.821533203125	-276.8520507812501	181.6768493652344	-1196.290649414063	-401.8648681640626	90.22017669677736	-1213.543701171875	-344.9418945312501	98.62324523925784	-1132.894897460938	-459.5139160156251	52.95426559448244	-1140.951416015625	-242.2924194335938	53.14868164062501	-1191.739135742188	-251.3248748779297	56.98710250854494	-1240.654663085938	-315.6601867675782	38.05761718750001	-1277.069946289063	-372.8403015136719	539.4899902343751	-620.5106811523439	-308.7961425781251	546.6626586914064	-599.4398193359376	-288.6106872558594	572.9304199218751	-604.9068603515626	-257.4759826660157	481.6958007812501	-582.8451538085939	-212.7821044921876	438.9173278808595	-565.1113281250001	-131.0389709472657	439.3096923828126	-678.6877441406251	-195.2906188964844	333.0725097656251	-560.3586425781251	-301.4408569335938	303.3005065917969	-563.3863525390626	-262.8795166015626	276.8566894531251	-560.8207397460939	-266.4446411132813	226.7528686523438	-587.7485961914064	-398.7013549804689	93.0270233154297	-605.1715698242189	-336.1514587402344	98.461296081543	-676.0344238281251	-449.0280761718751	50.59148406982423	-681.6213989257814	-233.1294860839844	51.62516021728517	-611.4061279296876	-249.8957061767579	54.85535049438478	-565.7429809570314	-312.3342590332032	34.46341705322266	-536.5815429687501	
602	3.005	158.0437622070313	1142.756103515625	-883.7269287109377	-2.823156356811524	1098.147338867188	-960.4307861328127	-25.37276268005372	1097.74951171875	-822.2300415039065	-76.14414978027345	1020.463012695313	-878.8418579101565	-357.8323364257813	849.4947509765627	-913.6846313476565	-16.11668586730957	868.689880371094	-885.182556152344	1.231857657432556	948.663757324219	-1037.34033203125	-131.9728393554688	951.1265869140627	-1222.967895507813	-136.0487365722657	901.7977294921877	-1235.816040039063	-174.8158416748047	926.7635498046877	-1274.398681640625	-222.733383178711	884.116149902344	-1300.632934570313	-285.5461730957032	932.1535644531252	-1258.991088867188	-387.0343627929689	739.8432617187501	-1146.428955078125	-372.4860534667969	679.2142333984376	-1191.11328125	-344.4702453613282	718.1259765625001	-1100.427612304688	-8.846765518188478	931.2145996093752	-723.1829223632814	-183.7930297851563	936.7255859375002	-567.9484252929689	-202.2369384765626	891.8311157226565	-560.4633789062501	-245.7502593994141	926.445983886719	-535.5639648437501	-293.9549560546876	907.7648925781252	-524.4413452148439	-332.3959655761719	956.6899414062502	-585.4202880859376	-447.688690185547	761.9707031250001	-701.8308715820314	-390.0821838378907	736.3609619140626	-727.2305908203126	-437.7613525390626	706.5831909179689	-646.6906738281251	-354.1355895996094	634.2459716796876	-1041.635498046875	-361.4912414550782	654.8041381835939	-775.5735473632815	-444.694061279297	798.4327392578127	-916.3917236328127	-471.7861328125001	781.0562744140627	-944.569763183594	-475.5348510742189	782.5625000000002	-887.3494262695315	-412.6504516601564	570.0776367187501	-1181.2666015625	-332.6811218261719	559.6402587890626	-1209.630126953125	-306.2213745117188	596.4187011718751	-1197.10986328125	-303.9958190917969	507.9049072265626	-1223.26171875	-188.5978698730469	438.3611145019532	-1251.34814453125	-123.425537109375	422.479949951172	-1131.239501953125	-198.3162841796876	280.1007080078126	-1213.558837890625	-278.3535156250001	268.4979248046876	-1252.461303710938	-241.227035522461	247.7860107421876	-1236.73828125	-276.7901000976563	181.6933288574219	-1196.291137695313	-401.8649902343751	90.23133850097658	-1213.486450195313	-344.8918151855469	98.63581085205081	-1132.86767578125	-459.5196228027345	52.98466873168947	-1140.968872070313	-242.5928192138672	53.14536285400392	-1191.840698242188	-251.2501678466797	56.99227905273439	-1240.65087890625	-315.6537780761719	38.0294532775879	-1277.051879882813	-372.7732238769532	539.4739990234376	-620.5075683593751	-308.6941528320313	546.5952758789064	-599.4178466796876	-288.4705810546876	572.8829345703126	-604.9194335937501	-257.4138488769532	481.6799621582032	-582.8526611328126	-212.7833709716797	438.9035644531251	-565.1283569335939	-131.0232849121094	439.2508850097657	-678.6842651367189	-195.2464294433594	333.0364990234376	-560.3420410156251	-301.4183044433594	303.2628784179688	-563.3979492187501	-262.8691406250001	276.8667297363282	-560.8122558593751	-266.4156188964844	226.7548522949219	-587.7418212890626	-398.6975708007814	93.03767395019533	-605.1625976562501	-336.1762695312501	98.45839691162112	-676.0108032226564	-449.0643615722657	50.6118621826172	-681.5762939453126	-233.1469879150391	51.65713119506837	-611.3688964843751	-249.8791809082032	54.8541717529297	-565.7711181640626	-312.3344116210938	34.47406005859376	-536.5718994140626	
603	3.01	158.1115264892578	1142.719970703125	-883.6606445312502	-2.774267673492432	1098.187377929688	-960.4743652343752	-25.2872428894043	1097.764526367188	-822.2468261718752	-76.07361602783205	1020.463317871094	-878.852478027344	-357.7450866699219	849.4895019531252	-913.6450195312502	-15.90184974670411	868.6361083984377	-885.1643676757815	1.435920715332031	948.6140747070315	-1037.307006835938	-131.7957916259766	951.0626220703127	-1222.982177734375	-135.8414001464844	901.7871093750002	-1235.79052734375	-174.6785430908203	926.6995849609377	-1274.353637695313	-222.5899047851563	884.120300292969	-1300.626220703125	-285.4128417968751	932.154479980469	-1258.970336914063	-387.0226440429689	739.9005737304689	-1146.402709960938	-372.3992309570313	679.2182006835939	-1191.103759765625	-344.4048156738282	718.1588134765626	-1100.421142578125	-8.772314071655275	931.268005371094	-723.1559448242189	-183.691650390625	936.7268676757815	-567.9567871093751	-202.2115325927735	891.8269042968752	-560.4823608398439	-245.7528076171876	926.4695434570315	-535.5649414062501	-293.9116210937501	907.8153076171877	-524.4472045898439	-332.3117065429688	956.7565917968752	-585.4455566406251	-447.6156616210939	762.1390380859376	-701.8830566406251	-390.084686279297	736.3671875000001	-727.2302856445314	-437.8598937988282	706.7232055664064	-646.6824951171876	-354.1183471679688	634.1281127929689	-1041.527954101563	-361.5157470703126	654.7474975585939	-775.6916503906252	-444.552459716797	798.4427490234377	-916.3632812500002	-471.668914794922	781.1195068359377	-944.5208129882815	-475.4379272460939	782.5830688476565	-887.3203735351565	-412.532928466797	570.1179809570314	-1181.27197265625	-332.5500488281251	559.6516113281251	-1209.613159179688	-306.0753784179688	596.4179687500001	-1197.1279296875	-303.8324584960938	507.9429626464845	-1223.232299804688	-188.468246459961	438.281219482422	-1251.290161132813	-123.3383026123047	422.3341674804689	-1131.162475585938	-198.291244506836	280.0722656250001	-1213.542358398438	-278.4067687988282	268.5014038085938	-1252.4130859375	-241.1331634521485	247.7356414794922	-1236.779174804688	-276.7738952636719	181.6607818603516	-1196.2900390625	-401.5056762695314	90.1430130004883	-1213.536743164063	-344.8981018066407	98.61518096923831	-1132.861450195313	-459.5332336425782	52.95614624023439	-1140.924926757813	-242.3088378906251	53.15834426879884	-1191.725219726563	-251.2841186523438	56.97741699218751	-1240.63818359375	-315.8066711425782	38.07011413574219	-1277.041748046875	-372.7155456542969	539.4606323242189	-620.5386962890626	-308.6788940429688	546.5973510742189	-599.4350585937501	-288.4261169433594	572.8738403320314	-604.9039306640626	-257.4081420898438	481.6880798339845	-582.8026733398439	-212.7286529541016	438.8654785156251	-565.1118164062501	-130.8887939453125	439.2538146972657	-678.6810913085939	-195.3372497558594	333.0224304199219	-560.4461059570314	-301.4022521972657	303.2640991210938	-563.3865966796876	-262.8092651367188	276.8539733886719	-560.7902832031251	-266.4257812500001	226.7334594726563	-587.7636718750001	-398.7112426757814	93.05098724365236	-605.2005004882814	-336.1440734863282	98.48200988769534	-676.0328369140626	-449.0370483398439	50.65183639526369	-681.5767822265626	-233.1407318115235	51.64566802978517	-611.3872680664064	-249.8726043701172	54.86289215087892	-565.7602539062501	-312.3613586425782	34.45357894897462	-536.5509643554689	
604	3.015	158.2266845703125	1142.780517578125	-883.6414794921877	-2.638790130615235	1098.190307617188	-960.4760742187502	-25.09536933898926	1097.767700195313	-822.2446899414065	-76.00512695312501	1020.461120605469	-878.803649902344	-357.6621398925782	849.530944824219	-913.6065063476565	-15.66085910797119	868.7026977539065	-885.1042480468752	1.559108376502991	948.6192016601565	-1037.29345703125	-131.700439453125	951.0750732421877	-1223.002319335938	-135.8013305664063	901.7235107421877	-1235.758056640625	-174.588851928711	926.7270507812502	-1274.334838867188	-222.4711914062501	884.0943603515627	-1300.625854492188	-285.3025207519532	932.1812744140627	-1258.997436523438	-386.8966674804689	739.9085693359376	-1146.3798828125	-372.3271789550782	679.2285156250001	-1191.092529296875	-344.2210693359376	718.1737060546876	-1100.473510742188	-8.707004547119142	931.2813720703127	-723.1458129882814	-183.6168975830078	936.7796020507815	-567.9661865234376	-202.1386718750001	891.8977661132815	-560.4916992187501	-245.6602935791016	926.5059814453127	-535.6099243164064	-293.8832702636719	907.8572387695315	-524.4401245117189	-332.2738037109376	956.8000488281252	-585.4509277343751	-447.6419372558595	762.2600097656251	-701.9288940429689	-390.3601379394532	736.6284179687501	-727.2620849609376	-438.0119018554689	706.8262939453126	-646.7407226562501	-354.1171264648438	634.1228637695314	-1041.527954101563	-361.5452880859376	654.7774658203126	-775.7329101562502	-444.4664611816407	798.4805908203127	-916.3298339843752	-471.5012817382814	781.122741699219	-944.4918212890627	-475.2149658203126	782.6221313476565	-887.3049316406252	-412.4312744140626	570.1294555664064	-1181.227172851563	-332.7696228027344	559.6795654296876	-1209.7109375	-305.9480285644532	596.3920288085939	-1197.05859375	-303.7420654296876	507.9057006835939	-1223.19775390625	-188.383285522461	438.2793579101564	-1251.271606445313	-123.2273178100586	422.274871826172	-1131.114868164063	-198.129867553711	280.0791625976563	-1213.473876953125	-278.2335205078126	268.4407958984376	-1252.419677734375	-241.1530303955079	247.7434997558594	-1236.746337890625	-276.6597595214844	181.566146850586	-1196.288208007813	-401.5629882812501	90.18169403076173	-1213.488403320313	-344.8279724121094	98.62915802001956	-1132.884643554688	-459.505340576172	52.94412231445314	-1140.93994140625	-242.2957458496094	53.12336349487306	-1191.723510742188	-251.2369384765626	56.97433471679689	-1240.637329101563	-315.7035827636719	38.03131866455079	-1277.055908203125	-372.6678161621094	539.4650268554689	-620.5498657226564	-308.6225891113282	546.5987548828126	-599.3843383789064	-288.3711242675782	572.8324584960939	-604.8850708007814	-257.2640991210938	481.6528930664064	-582.8601684570314	-212.6180877685547	438.8473510742189	-565.1015625000001	-130.8188934326172	439.2003173828126	-678.6526489257814	-195.1761627197266	333.0356445312501	-560.3238525390626	-301.3293151855469	303.2585449218751	-563.3714599609376	-262.7999267578126	276.8368835449219	-560.7758178710939	-266.4302978515626	226.7520294189454	-587.6912841796876	-398.6461181640626	93.01756286621095	-605.1694335937501	-336.1668395996094	98.45289611816409	-676.0152587890626	-449.0528259277345	50.63276672363283	-681.5781250000001	-233.1408233642579	51.65934371948244	-611.3929443359376	-249.8840637207032	54.85963058471681	-565.7578125000001	-312.3572692871094	34.46699142456055	-536.5394897460939	
